<svg width="344" height="161" viewBox="0 0 344 161" fill="none" xmlns="http://www.w3.org/2000/svg">
<path d="M57.834 160.207L2.97262 128.774C0.965263 127.619 1.21144 125.608 3.53126 124.283L61.6783 90.8862C63.9981 89.5519 67.511 89.4109 69.5183 90.5667L124.38 121.999C126.387 123.155 126.141 125.166 123.821 126.491L65.674 159.887C63.3542 161.222 59.8414 161.363 57.834 160.207Z" fill="url(#paint0_linear_238_119)"/>
<path d="M61.2527 149.881C59.6904 149.881 58.1754 149.552 57.0297 148.894L2.16832 117.462C0.785892 116.672 0 115.451 0 114.116C0 112.604 0.994208 111.175 2.73644 110.179L60.8834 76.7827C63.6956 75.1664 67.8524 75.0255 70.3521 76.4632L125.213 107.896C126.596 108.685 127.382 109.907 127.382 111.241C127.382 112.754 126.388 114.182 124.645 115.178L66.5078 148.575C64.9929 149.439 63.0896 149.881 61.2622 149.881H61.2527ZM58.6488 146.103C60.1544 146.968 63.0612 146.818 64.8697 145.784L123.007 112.387C123.822 111.918 124.115 111.448 124.115 111.241C124.115 111.119 123.945 110.903 123.575 110.687L68.714 79.2541C67.2085 78.3896 64.3016 78.5399 62.4931 79.5736L4.35557 112.97C3.54127 113.44 3.24774 113.91 3.24774 114.116C3.24774 114.239 3.41818 114.455 3.79693 114.671L58.6583 146.103H58.6488Z" fill="url(#paint1_linear_238_119)"/>
<path d="M91.1939 85.0165C95.4074 99.9964 86.6292 115.673 71.1797 119.853C56.0814 124.034 40.2808 115.325 36.0673 99.9964C31.8538 85.0166 40.6319 69.34 56.0814 65.1596C71.1798 60.9792 86.9804 69.6883 91.1939 85.0165Z" fill="#0146FE"/>
<path d="M75.942 83.0844L72.8369 86.8972L69.7318 83.0844H71.9106V82.1581C71.9096 81.4213 71.6165 80.715 71.0955 80.1941C70.5746 79.6731 69.8683 79.38 69.1316 79.3791H68.2052V77.5264H69.1316C70.3595 77.5278 71.5368 78.0163 72.4051 78.8846C73.2733 79.7529 73.7618 80.9301 73.7633 82.1581V83.0844H75.942ZM57.0891 94.2005H51.2217C50.8125 94.2 50.4202 94.0373 50.1309 93.748C49.8416 93.4587 49.6789 93.0664 49.6784 92.6572V80.9223C49.6789 80.5132 49.8416 80.1209 50.1309 79.8316C50.4202 79.5423 50.8125 79.3795 51.2217 79.3791H62.9566C63.3657 79.3795 63.758 79.5423 64.0473 79.8316C64.3366 80.1209 64.4994 80.5132 64.4998 80.9223V86.7898H66.3525V80.9223C66.3516 80.022 65.9934 79.1588 65.3568 78.5221C64.7201 77.8855 63.8569 77.5273 62.9566 77.5264H51.2217C50.3213 77.5273 49.4581 77.8855 48.8214 78.5221C48.1848 79.1588 47.8267 80.022 47.8257 80.9223V92.6572C47.8267 93.5576 48.1848 94.4208 48.8214 95.0575C49.4581 95.6941 50.3213 96.0522 51.2217 96.0532H57.0891V94.2005ZM60.2998 86.8713C60.6314 86.252 60.9079 85.6048 61.1261 84.9371H62.6472V83.0844H58.0507L58.2878 82.8454L56.3295 80.8853L55.0197 82.1951L55.9089 83.0844H51.5311V84.9371H52.9539C53.4757 86.6093 54.3745 88.1395 55.581 89.4095C54.563 90.0661 53.442 90.5471 52.2647 90.8323L52.7131 92.6295C54.2666 92.2544 55.7334 91.5839 57.0335 90.6545C57.0539 90.6693 57.0798 90.6804 57.1002 90.6953C57.1245 89.7905 57.4537 88.9205 58.0345 88.2264C58.6153 87.5323 59.4135 87.0548 60.2998 86.8713ZM54.9215 84.9371H59.153C58.6841 86.1722 57.9593 87.2942 57.0261 88.2293C56.0965 87.2956 55.3787 86.1728 54.9215 84.9371ZM74.119 107.169H62.2914C61.4034 107.168 60.5519 106.815 59.924 106.187C59.296 105.559 58.9428 104.708 58.9418 103.82V91.9921C58.9428 91.104 59.296 90.2526 59.924 89.6247C60.5519 88.9967 61.4034 88.6435 62.2914 88.6425H74.119C75.0071 88.6435 75.8585 88.9967 76.4865 89.6247C77.1144 90.2526 77.4677 91.104 77.4686 91.9921V103.82C77.4677 104.708 77.1144 105.559 76.4865 106.187C75.8585 106.815 75.0071 107.168 74.119 107.169ZM62.2914 90.4952C61.8946 90.4957 61.5141 90.6535 61.2335 90.9342C60.9528 91.2148 60.795 91.5953 60.7945 91.9921V103.82C60.795 104.217 60.9528 104.597 61.2335 104.878C61.5141 105.158 61.8946 105.316 62.2914 105.317H74.119C74.5159 105.316 74.8963 105.158 75.177 104.878C75.4576 104.597 75.6155 104.217 75.616 103.82V91.9921C75.6155 91.5953 75.4576 91.2148 75.177 90.9342C74.8963 90.6535 74.5159 90.4957 74.119 90.4952H62.2914ZM72.1885 103.353L73.8541 102.539L68.2052 90.9787L62.5564 102.539L64.2219 103.355L65.0742 101.611H71.3363L72.1885 103.353ZM65.9783 99.7586L68.2052 95.201L70.4321 99.7586H65.9783ZM57.0891 105.317V107.169H56.1628C54.9348 107.168 53.7576 106.679 52.8893 105.811C52.021 104.943 51.5325 103.766 51.5311 102.538V101.611H49.3523L52.4574 97.7984L55.5625 101.611H53.3837V102.538C53.3847 103.274 53.6778 103.981 54.1988 104.502C54.7197 105.023 55.426 105.316 56.1628 105.317H57.0891Z" fill="white"/>
<path d="M289.106 151.326L248.172 127.865C245.658 126.429 245.978 123.91 248.872 122.25L288.394 99.602C291.3 97.9422 295.689 97.7539 298.192 99.2018L339.125 122.662C341.64 124.098 341.319 126.617 338.425 128.277L298.903 150.925C295.997 152.585 291.609 152.773 289.106 151.326Z" fill="url(#paint2_linear_238_119)"/>
<path d="M293.387 141.776C291.382 141.776 289.461 141.352 287.942 140.481L247.009 117.021C245.194 115.985 244.15 114.361 244.15 112.583C244.15 110.594 245.443 108.71 247.709 107.404L287.231 84.7556C290.884 82.6603 296.103 82.4838 299.353 84.3554L340.286 107.816C342.101 108.852 343.145 110.476 343.145 112.254C343.145 114.243 341.852 116.138 339.586 117.433L300.065 140.081C298.107 141.211 295.688 141.776 293.375 141.776H293.387ZM290.267 136.491C292.07 137.527 295.569 137.338 297.74 136.091L337.262 113.443C338.258 112.877 338.495 112.36 338.495 112.265C338.483 112.242 338.353 112.053 337.961 111.83L297.028 88.3695C295.225 87.3336 291.738 87.5219 289.555 88.7697L250.034 111.418C249.037 111.983 248.8 112.501 248.8 112.595C248.812 112.619 248.942 112.819 249.334 113.031L290.267 136.491Z" fill="url(#paint3_linear_238_119)"/>
<path d="M293.547 92.468C299.022 92.468 303.458 88.0662 303.458 82.6349C303.458 77.2036 299.022 72.8018 293.547 72.8018C288.073 72.8018 283.636 77.2036 283.636 82.6349C283.636 88.0662 288.073 92.468 293.547 92.468ZM300.485 94.9263H299.192C297.473 95.7099 295.56 96.1555 293.547 96.1555C291.534 96.1555 289.629 95.7099 287.903 94.9263H286.61C280.864 94.9263 276.203 99.551 276.203 105.251V108.447C276.203 110.483 277.868 112.134 279.92 112.134H307.175C309.227 112.134 310.891 110.483 310.891 108.447V105.251C310.891 99.551 306.23 94.9263 300.485 94.9263Z" fill="#9DB8FF"/>
<path d="M195.914 10.2031L189.686 3.2442C189.555 3.10003 189.395 2.98468 189.216 2.90558C189.037 2.82648 188.844 2.78538 188.648 2.78492H177.426C176.96 2.7794 176.497 2.86503 176.064 3.03691C175.631 3.20879 175.237 3.46355 174.904 3.78665C174.57 4.10976 174.304 4.49487 174.121 4.91999C173.937 5.34512 173.84 5.80194 173.834 6.26435V27.141C173.84 27.6034 173.937 28.0602 174.121 28.4853C174.304 28.9105 174.57 29.2956 174.904 29.6187C175.237 29.9418 175.631 30.1965 176.064 30.3684C176.497 30.5403 176.96 30.6259 177.426 30.6204H192.688C193.154 30.6259 193.617 30.5403 194.049 30.3684C194.482 30.1965 194.876 29.9418 195.21 29.6187C195.543 29.2956 195.809 28.9105 195.993 28.4853C196.176 28.0602 196.274 27.6034 196.279 27.141V11.1356C196.278 10.7906 196.148 10.4583 195.914 10.2031ZM187.862 5.56847L193.109 11.1356H188.9C188.754 11.1268 188.61 11.089 188.478 11.0245C188.346 10.9601 188.228 10.8701 188.131 10.76C188.035 10.6499 187.961 10.5218 187.915 10.3831C187.869 10.2445 187.851 10.0981 187.862 9.95256V5.56847Z" fill="url(#paint4_linear_238_119)"/>
<path d="M250.282 47.978L245.424 42.6337C245.322 42.523 245.197 42.4344 245.058 42.3736C244.918 42.3129 244.767 42.2813 244.615 42.281H235.861C235.498 42.2767 235.137 42.3425 234.799 42.4745C234.462 42.6065 234.154 42.8021 233.894 43.0503C233.634 43.2984 233.426 43.5942 233.283 43.9207C233.14 44.2472 233.064 44.598 233.06 44.9531V60.9861C233.064 61.3412 233.14 61.692 233.283 62.0185C233.426 62.345 233.634 62.6408 233.894 62.8889C234.154 63.137 234.462 63.3327 234.799 63.4647C235.137 63.5967 235.498 63.6625 235.861 63.6582H247.766C248.129 63.6625 248.49 63.5967 248.828 63.4647C249.165 63.3327 249.473 63.137 249.733 62.8889C249.993 62.6408 250.201 62.345 250.344 62.0185C250.487 61.692 250.563 61.3412 250.567 60.9861V48.6941C250.566 48.4292 250.465 48.174 250.282 47.978ZM244.002 44.4187L248.094 48.6941H244.811C244.697 48.6874 244.585 48.6584 244.482 48.6089C244.379 48.5594 244.287 48.4903 244.212 48.4057C244.136 48.3211 244.079 48.2227 244.043 48.1163C244.007 48.0098 243.993 47.8974 244.002 47.7856V44.4187Z" fill="url(#paint5_linear_238_119)"/>
<path d="M134.052 46.6323L129.194 41.288C129.091 41.1772 128.967 41.0887 128.827 41.0279C128.688 40.9672 128.537 40.9356 128.384 40.9353H119.631C119.267 40.931 118.906 40.9968 118.569 41.1288C118.231 41.2608 117.924 41.4564 117.664 41.7046C117.403 41.9527 117.196 42.2485 117.053 42.575C116.91 42.9014 116.834 43.2523 116.83 43.6074V59.6404C116.834 59.9955 116.91 60.3463 117.053 60.6728C117.196 60.9993 117.403 61.2951 117.664 61.5432C117.924 61.7913 118.231 61.987 118.569 62.119C118.906 62.251 119.267 62.3168 119.631 62.3125H131.535C131.899 62.3168 132.26 62.251 132.597 62.119C132.935 61.987 133.242 61.7913 133.502 61.5432C133.763 61.2951 133.97 60.9993 134.113 60.6728C134.256 60.3463 134.332 59.9955 134.336 59.6404V47.3484C134.336 47.0835 134.234 46.8283 134.052 46.6323ZM127.771 43.073L131.864 47.3484H128.581C128.466 47.3417 128.354 47.3127 128.251 47.2632C128.148 47.2137 128.057 47.1446 127.981 47.06C127.906 46.9754 127.848 46.877 127.812 46.7706C127.776 46.6641 127.762 46.5517 127.771 46.4399V43.073Z" fill="url(#paint6_linear_238_119)"/>
<path d="M204.346 104.63C204.743 104.241 204.748 103.603 204.358 103.205L198 96.7132C197.609 96.3148 196.971 96.307 196.575 96.6956C196.178 97.0843 196.172 97.7223 196.563 98.1207L202.214 103.891L196.466 109.521C196.069 109.91 196.064 110.548 196.454 110.946C196.844 111.344 197.482 111.352 197.879 110.964L204.346 104.63ZM149.215 104.246L203.631 104.916L203.648 102.901L149.232 102.231L149.215 104.246Z" fill="url(#paint7_linear_238_119)"/>
<path d="M148.517 119.418C148.121 119.03 148.115 118.392 148.506 117.993L154.864 111.5C155.255 111.102 155.893 111.094 156.289 111.483C156.686 111.871 156.692 112.509 156.301 112.908L150.649 118.679L156.397 124.308C156.793 124.697 156.799 125.335 156.408 125.733C156.018 126.132 155.38 126.139 154.983 125.751L148.517 119.418ZM203.648 119.026L149.232 119.704L149.216 117.689L203.631 117.01L203.648 119.026Z" fill="url(#paint8_linear_238_119)"/>
<defs>
<linearGradient id="paint0_linear_238_119" x1="63.6762" y1="230.73" x2="34.3096" y2="95.0414" gradientUnits="userSpaceOnUse">
<stop stop-color="#0D9AFF" stop-opacity="0.01"/>
<stop offset="1" stop-color="#0D9AFF" stop-opacity="0.12"/>
</linearGradient>
<linearGradient id="paint1_linear_238_119" x1="13.3048" y1="136.483" x2="135.771" y2="102.325" gradientUnits="userSpaceOnUse">
<stop offset="0.158406" stop-color="#A5BDFF" stop-opacity="0.46"/>
<stop offset="1" stop-color="#A5BDFF" stop-opacity="0"/>
</linearGradient>
<linearGradient id="paint2_linear_238_119" x1="293.649" y1="205.265" x2="271.364" y2="102.21" gradientUnits="userSpaceOnUse">
<stop stop-color="#0D9AFF" stop-opacity="0.01"/>
<stop offset="1" stop-color="#0D9AFF" stop-opacity="0.12"/>
</linearGradient>
<linearGradient id="paint3_linear_238_119" x1="254.49" y1="131.204" x2="349.871" y2="105.003" gradientUnits="userSpaceOnUse">
<stop offset="0.158406" stop-color="#A5BDFF" stop-opacity="0.46"/>
<stop offset="1" stop-color="#A5BDFF" stop-opacity="0"/>
</linearGradient>
<linearGradient id="paint4_linear_238_119" x1="185.057" y1="57.8847" x2="163.741" y2="12.3284" gradientUnits="userSpaceOnUse">
<stop stop-color="#0D9AFF" stop-opacity="0.47"/>
<stop offset="1" stop-color="#0D9AFF" stop-opacity="0.17"/>
</linearGradient>
<linearGradient id="paint5_linear_238_119" x1="241.813" y1="84.5968" x2="225.607" y2="49.417" gradientUnits="userSpaceOnUse">
<stop stop-color="#0F9BFF" stop-opacity="0.38"/>
<stop offset="1" stop-color="#0D9AFF" stop-opacity="0.12"/>
<stop offset="1" stop-color="#0D9AFF" stop-opacity="0.52"/>
</linearGradient>
<linearGradient id="paint6_linear_238_119" x1="125.583" y1="83.2511" x2="109.376" y2="48.0713" gradientUnits="userSpaceOnUse">
<stop stop-color="#0F9BFF" stop-opacity="0.38"/>
<stop offset="1" stop-color="#0D9AFF" stop-opacity="0.12"/>
<stop offset="1" stop-color="#0D9AFF" stop-opacity="0.52"/>
</linearGradient>
<linearGradient id="paint7_linear_238_119" x1="203.639" y1="103.899" x2="145.374" y2="103.431" gradientUnits="userSpaceOnUse">
<stop stop-color="#0146FE"/>
<stop offset="1" stop-color="#0146FE" stop-opacity="0"/>
</linearGradient>
<linearGradient id="paint8_linear_238_119" x1="149.224" y1="118.687" x2="207.489" y2="118.225" gradientUnits="userSpaceOnUse">
<stop stop-color="#0146FE"/>
<stop offset="1" stop-color="#0146FE" stop-opacity="0"/>
</linearGradient>
</defs>
</svg>
